<svg width="300" height="283" viewBox="0 0 300 283" fill="none" xmlns="http://www.w3.org/2000/svg">
<path d="M136 59C136 56.2386 138.239 54 141 54H159.421C162.182 54 164.421 56.2386 164.421 59V175.545C164.421 189.352 175.614 200.545 189.421 200.545H205.579C211.102 200.545 215.579 196.068 215.579 190.545V132.984C215.579 130.222 217.818 127.984 220.579 127.984H238.338C241.081 127.984 243.311 130.193 243.338 132.935L243.806 180.741C243.913 191.709 252.836 200.545 263.805 200.545H293C295.761 200.545 298 202.783 298 205.545V224C298 226.761 295.761 229 293 229H6C3.23858 229 1 226.761 1 224V205.545C1 202.783 3.23858 200.545 6 200.545H36.421C47.4667 200.545 56.421 191.59 56.421 180.545V132.984C56.421 130.222 58.6596 127.984 61.421 127.984H79.8421C82.6035 127.984 84.8421 130.222 84.8421 132.984V190.545C84.8421 196.068 89.3192 200.545 94.8421 200.545H111C124.807 200.545 136 189.352 136 175.545V59Z" fill="#6F7385"/>
</svg>
